<svg width="60" height="60" viewBox="0 0 60 60" fill="none" xmlns="http://www.w3.org/2000/svg">
<rect width="60" height="60" rx="10" fill="white"/>
<rect x="0.5" y="0.5" width="59" height="59" rx="9.5" stroke="#919EAB" stroke-opacity="0.3"/>
<path d="M37 24.5H35.72L35.4 23.5C35.1926 22.9133 34.8077 22.4055 34.2989 22.0472C33.7901 21.6888 33.1824 21.4976 32.56 21.5H27.44C26.8115 21.5012 26.1993 21.6997 25.6898 22.0675C25.1802 22.4353 24.799 22.9539 24.6 23.55L24.28 24.55H23C22.2044 24.55 21.4413 24.8661 20.8787 25.4287C20.3161 25.9913 20 26.7544 20 27.55V35.55C20 36.3457 20.3161 37.1087 20.8787 37.6713C21.4413 38.234 22.2044 38.55 23 38.55H37C37.7956 38.55 38.5587 38.234 39.1213 37.6713C39.6839 37.1087 40 36.3457 40 35.55V27.55C40.0066 27.1519 39.9339 26.7564 39.7862 26.3866C39.6384 26.0168 39.4184 25.6802 39.1392 25.3963C38.86 25.1124 38.527 24.887 38.1597 24.7331C37.7924 24.5792 37.3982 24.5 37 24.5ZM38 35.5C38 35.7652 37.8946 36.0196 37.7071 36.2071C37.5196 36.3947 37.2652 36.5 37 36.5H23C22.7348 36.5 22.4804 36.3947 22.2929 36.2071C22.1054 36.0196 22 35.7652 22 35.5V27.5C22 27.2348 22.1054 26.9805 22.2929 26.7929C22.4804 26.6054 22.7348 26.5 23 26.5H25C25.2181 26.5114 25.4339 26.4511 25.6144 26.3283C25.795 26.2055 25.9304 26.027 26 25.82L26.54 24.18C26.6071 23.9814 26.7349 23.8089 26.9054 23.6869C27.0758 23.5648 27.2804 23.4995 27.49 23.5H32.61C32.8196 23.4995 33.0242 23.5648 33.1946 23.6869C33.3651 23.8089 33.4929 23.9814 33.56 24.18L34.1 25.82C34.1642 26.0108 34.2844 26.1777 34.445 26.299C34.6055 26.4204 34.799 26.4904 35 26.5H37C37.2652 26.5 37.5196 26.6054 37.7071 26.7929C37.8946 26.9805 38 27.2348 38 27.5V35.5ZM30 26.5C29.2089 26.5 28.4355 26.7346 27.7777 27.1741C27.1199 27.6137 26.6072 28.2384 26.3045 28.9693C26.0017 29.7002 25.9225 30.5045 26.0769 31.2804C26.2312 32.0563 26.6122 32.769 27.1716 33.3284C27.731 33.8879 28.4437 34.2688 29.2196 34.4232C29.9956 34.5775 30.7998 34.4983 31.5307 34.1955C32.2616 33.8928 32.8864 33.3801 33.3259 32.7223C33.7654 32.0645 34 31.2911 34 30.5C34 29.4392 33.5786 28.4217 32.8284 27.6716C32.0783 26.9214 31.0609 26.5 30 26.5ZM30 32.5C29.6044 32.5 29.2178 32.3827 28.8889 32.163C28.56 31.9432 28.3036 31.6308 28.1522 31.2654C28.0009 30.8999 27.9613 30.4978 28.0384 30.1098C28.1156 29.7219 28.3061 29.3655 28.5858 29.0858C28.8655 28.8061 29.2219 28.6156 29.6098 28.5385C29.9978 28.4613 30.3999 28.5009 30.7654 28.6523C31.1308 28.8036 31.4432 29.06 31.6629 29.3889C31.8827 29.7178 32 30.1045 32 30.5C32 31.0305 31.7893 31.5392 31.4142 31.9142C31.0391 32.2893 30.5304 32.5 30 32.5Z" fill="#616161"/>
</svg>
