<svg width="30" height="30" viewBox="0 0 30 30" fill="none" xmlns="http://www.w3.org/2000/svg">
<path d="M0 7.19697C0 3.22219 3.12 0 6.96871 0H22.0798C25.9285 0 29.0485 3.22219 29.0485 7.19697V30H12.5437C5.61599 30 0 24.2001 0 17.0455V7.19697Z" fill="#680A83"/>
<path d="M21.1164 13.6697L21.0875 13.6988C20.7554 9.7477 17.4708 6.64307 13.4642 6.64307C9.23628 6.64307 5.80966 10.097 5.80966 14.3586C5.80966 18.3485 8.81758 21.6326 12.6701 22.0304L12.6292 22.0716H23.2388L21.1164 13.6697Z" fill="white"/>
<path d="M17.09 14.5714C17.09 16.82 15.282 18.6429 13.0516 18.6429C10.8212 18.6429 9.01315 16.82 9.01315 14.5714C9.01315 12.3228 10.8212 10.5 13.0516 10.5C15.282 10.5 17.09 12.3228 17.09 14.5714Z" fill="#680A83"/>
</svg>
