<svg width="16" height="17" viewBox="0 0 16 17" fill="none" xmlns="http://www.w3.org/2000/svg">
<g clip-path="url(#clip0_1046_106004)">
<path d="M2 4.14323H3.33333M3.33333 4.14323H14M3.33333 4.14323V13.4766C3.33333 13.8302 3.47381 14.1693 3.72386 14.4194C3.97391 14.6694 4.31304 14.8099 4.66667 14.8099H11.3333C11.687 14.8099 12.0261 14.6694 12.2761 14.4194C12.5262 14.1693 12.6667 13.8302 12.6667 13.4766V4.14323H3.33333ZM5.33333 4.14323V2.8099C5.33333 2.45627 5.47381 2.11714 5.72386 1.86709C5.97391 1.61704 6.31304 1.47656 6.66667 1.47656H9.33333C9.68696 1.47656 10.0261 1.61704 10.2761 1.86709C10.5262 2.11714 10.6667 2.45627 10.6667 2.8099V4.14323M6.66667 7.47656V11.4766M9.33333 7.47656V11.4766" stroke="white" stroke-linecap="round" stroke-linejoin="round"/>
</g>
<defs>
<clipPath id="clip0_1046_106004">
<rect width="16" height="16" fill="white" transform="translate(0 0.142578)"/>
</clipPath>
</defs>
</svg>
