<svg width="25" height="24" viewBox="0 0 25 24" fill="none" xmlns="http://www.w3.org/2000/svg">
<g clip-path="url(#clip0_1046_99658)">
<path d="M23.5996 10.999H21.5996V8.99901C21.5996 8.44673 21.1519 7.99902 20.5996 7.99902C20.0473 7.99902 19.5996 8.44673 19.5996 8.99901V10.999H17.5996C17.0473 10.999 16.5996 11.4467 16.5996 11.999C16.5996 12.5513 17.0473 12.999 17.5996 12.999H19.5996V14.999C19.5996 15.5513 20.0473 15.999 20.5996 15.999C21.1519 15.999 21.5996 15.5513 21.5996 14.999V12.999H23.5996C24.1519 12.999 24.5996 12.5513 24.5996 11.999C24.5996 11.4467 24.1519 10.999 23.5996 10.999Z" fill="#680A83"/>
<path d="M9.59961 12C12.9133 12 15.5996 9.31371 15.5996 6C15.5996 2.68629 12.9133 0 9.59961 0C6.2859 0 3.59961 2.68629 3.59961 6C3.59961 9.31371 6.2859 12 9.59961 12Z" fill="#C00CFF"/>
<path d="M9.59961 13.999C4.63133 14.0046 0.605141 18.0307 0.599609 22.999C0.599609 23.5513 1.04731 23.999 1.59959 23.999H17.5996C18.1519 23.999 18.5996 23.5513 18.5996 22.999C18.5941 18.0307 14.5679 14.0045 9.59961 13.999Z" fill="#680A83"/>
</g>
<defs>
<clipPath id="clip0_1046_99658">
<rect width="24" height="24" fill="white" transform="translate(0.599609)"/>
</clipPath>
</defs>
</svg>
