<svg width="25" height="24" viewBox="0 0 25 24" fill="none" xmlns="http://www.w3.org/2000/svg">
<g clip-path="url(#clip0_1046_99651)">
<path d="M14.8208 6.10504L10.5928 1.87804C10.3151 1.59837 9.98458 1.37666 9.62048 1.22577C9.25638 1.07487 8.86593 0.997805 8.4718 0.999038H1.7998C1.53459 0.999038 1.28023 1.10439 1.0927 1.29193C0.905162 1.47947 0.799805 1.73382 0.799805 1.99904C0.799805 2.26425 0.905162 2.51861 1.0927 2.70614C1.28023 2.89368 1.53459 2.99904 1.7998 2.99904H8.4718C8.73687 2.99975 8.99094 3.10504 9.1788 3.29204L11.8858 5.99904H5.7998C4.47421 6.00063 3.20336 6.52792 2.26602 7.46526C1.32869 8.4026 0.801393 9.67344 0.799805 10.999L0.799805 18.999C0.801393 20.3246 1.32869 21.5955 2.26602 22.5328C3.20336 23.4702 4.47421 23.9975 5.7998 23.999H13.7998C15.1254 23.9975 16.3962 23.4702 17.3336 22.5328C18.2709 21.5955 18.7982 20.3246 18.7998 18.999V10.999C18.7982 9.85075 18.402 8.73789 17.6776 7.84692C16.9532 6.95595 15.9446 6.34098 14.8208 6.10504Z" fill="#680A83"/>
<path d="M23.6996 8.95581C23.3685 8.78803 22.9971 8.71633 22.6273 8.74885C22.2576 8.78137 21.9043 8.91681 21.6076 9.13981L20.8076 9.73981V20.2618L21.6076 20.8618C21.9048 21.0847 22.2581 21.2204 22.628 21.2537C22.9979 21.2871 23.3698 21.2168 23.702 21.0507C24.0343 20.8846 24.3136 20.6292 24.5089 20.3133C24.7042 19.9973 24.8076 19.6332 24.8076 19.2618V10.7438C24.8086 10.372 24.7053 10.0073 24.5095 9.69126C24.3136 9.3752 24.033 9.1204 23.6996 8.95581Z" fill="#C00CFF"/>
</g>
<defs>
<clipPath id="clip0_1046_99651">
<rect width="24" height="24" fill="white" transform="translate(0.799805)"/>
</clipPath>
</defs>
</svg>
