<svg width="25" height="24" viewBox="0 0 25 24" fill="none" xmlns="http://www.w3.org/2000/svg">
<path d="M4.40039 18H6.40039V22.081L11.5014 18H16.4004C17.5034 18 18.4004 17.103 18.4004 16V8C18.4004 6.897 17.5034 6 16.4004 6H4.40039C3.29739 6 2.40039 6.897 2.40039 8V16C2.40039 17.103 3.29739 18 4.40039 18Z" fill="#680A83"/>
<path d="M20.4004 2H8.40039C7.29739 2 6.40039 2.897 6.40039 4H18.4004C19.5034 4 20.4004 4.897 20.4004 6V14C21.5034 14 22.4004 13.103 22.4004 12V4C22.4004 2.897 21.5034 2 20.4004 2Z" fill="#C00CFF"/>
</svg>
