<svg width="45" height="44" viewBox="0 0 45 44" fill="none" xmlns="http://www.w3.org/2000/svg">
<path d="M15.8332 0.732681C12.5238 1.95558 9.82625 5.33311 9.32567 8.82711C9.21443 9.58414 8.99195 10.3121 8.79728 10.4576C8.63042 10.6032 7.79611 10.8653 6.934 11.0691C1.53884 12.2629 -1.5759 18.8432 0.815773 24.0551C1.65008 25.9477 3.73584 28.1897 5.18196 28.8302C5.93284 29.1505 6.07189 29.3834 6.21094 30.4899C6.48904 33.1686 8.54699 35.1194 11.4392 35.4688C12.9132 35.6435 13.4416 36.1676 13.1913 37.1867C12.8576 38.6134 12.3848 44 12.6073 44C12.7185 44 14.0534 42.7771 15.5273 41.2922C19.1426 37.6235 20.5888 36.2841 21.4231 35.8473C21.9515 35.5271 24.2041 35.4397 31.1566 35.4397L40.2227 35.4106L41.5854 34.6536C42.5588 34.1295 43.2262 33.518 43.8102 32.4989L44.6445 31.1013L44.728 24.2298C44.8392 16.3974 44.6445 14.8251 43.3375 13.2528C41.6967 11.302 40.8624 11.0691 35.2169 10.9235C32.4637 10.8653 29.9052 10.7488 29.5714 10.6615C29.1265 10.545 28.904 10.2247 28.7928 9.40944C28.1531 5.33311 25.6502 1.9847 22.2852 0.761799C20.7834 0.237701 17.2237 0.20858 15.8332 0.732681ZM41.3073 14.3302C42.3641 15.4366 42.5588 16.7177 42.531 23.2107C42.531 29.9658 42.3641 31.0431 41.1683 32.1204L40.334 32.9357H31.1566C23.6479 32.9357 21.7846 33.023 20.9781 33.3724C20.4219 33.6054 18.9758 34.6827 17.7799 35.7309L15.5551 37.6817L15.6108 35.76C15.6942 33.2851 15.4161 32.9357 13.3859 32.9357C11.0499 32.9357 9.79844 32.4698 9.18662 31.3925C8.88071 30.8684 8.63042 30.3152 8.63042 30.1114C8.63042 29.8493 11.4392 29.7328 19.9769 29.6746C31.101 29.5873 31.3235 29.5873 32.6862 28.9176C36.7186 26.9668 39.0269 21.7258 37.692 17.533C37.4417 16.6886 36.7743 15.4366 36.2459 14.7087L35.3003 13.3693L37.9423 13.4858C40.3618 13.5731 40.6677 13.6314 41.3073 14.3302ZM28.5147 15.8733C29.0152 16.1063 29.5714 16.543 29.7383 16.8633C30.2667 17.9115 30.0998 19.4547 29.3768 20.3282C28.7093 21.1434 28.6537 21.1434 24.7047 21.289L20.7278 21.4346L18.8367 22.6866L16.9735 23.9095V22.5993V21.289H13.4972C9.6872 21.289 8.79728 21.027 8.18546 19.8041C7.43458 18.2609 7.93516 16.5139 9.32567 15.8733C10.5771 15.291 27.1798 15.291 28.5147 15.8733Z" fill="white"/>
<path d="M14.1924 17.7654C13.7475 18.668 14.3037 19.5997 15.2214 19.4833C16.167 19.3668 16.6675 18.5515 16.2504 17.8527C15.8054 17.0957 14.5818 17.0375 14.1924 17.7654Z" fill="white"/>
<path d="M17.8633 17.5621C17.1125 18.3482 17.6965 19.542 18.8367 19.542C19.6432 19.542 20.1716 18.5811 19.7544 17.795C19.4207 17.1544 18.3917 17.0088 17.8633 17.5621Z" fill="white"/>
<path d="M21.4787 17.5621C20.7279 18.3482 21.3119 19.542 22.4521 19.542C23.2586 19.542 23.787 18.5811 23.3698 17.795C23.0361 17.1544 22.0071 17.0088 21.4787 17.5621Z" fill="white"/>
</svg>
