<svg width="130" height="23" viewBox="0 0 130 23" fill="none" xmlns="http://www.w3.org/2000/svg">
<path d="M8.21889 0.211731C6.5 0.846897 5.09889 2.60117 4.83889 4.41594C4.78111 4.80914 4.66555 5.18721 4.56444 5.26283C4.47778 5.33844 4.04444 5.47455 3.59666 5.58041C0.794442 6.20045 -0.823336 9.61826 0.418887 12.3253C0.85222 13.3083 1.93555 14.4728 2.68666 14.8055C3.07666 14.9718 3.14889 15.0928 3.22111 15.6675C3.36555 17.0588 4.43444 18.072 5.93667 18.2535C6.70222 18.3443 6.97667 18.6165 6.84667 19.1458C6.67333 19.8868 6.42778 22.6846 6.54333 22.6846C6.60111 22.6846 7.29444 22.0494 8.06 21.2781C9.93778 19.3726 10.6889 18.677 11.1222 18.4501C11.3967 18.2838 12.5667 18.2384 16.1778 18.2384L20.8867 18.2233L21.5944 17.8301C22.1 17.5579 22.4467 17.2403 22.75 16.711L23.1833 15.9851L23.2267 12.416C23.2844 8.34793 23.1833 7.53128 22.5044 6.71464C21.6522 5.7014 21.2189 5.58041 18.2867 5.5048C16.8567 5.47455 15.5278 5.41406 15.3544 5.36869C15.1233 5.3082 15.0078 5.14184 14.95 4.7184C14.6178 2.60117 13.3178 0.862022 11.57 0.226854C10.79 -0.0453606 8.94111 -0.0604839 8.21889 0.211731ZM21.45 7.27419C21.9989 7.84887 22.1 8.51428 22.0856 11.8867C22.0856 15.3953 21.9989 15.9548 21.3778 16.5144L20.9444 16.9378H16.1778C12.2778 16.9378 11.31 16.9832 10.8911 17.1647C10.6022 17.2856 9.85111 17.8452 9.23 18.3896L8.07444 19.4029L8.10333 18.4047C8.14667 17.1193 8.00222 16.9378 6.94778 16.9378C5.73444 16.9378 5.08444 16.6958 4.76666 16.1363C4.60778 15.8641 4.47778 15.5767 4.47778 15.4709C4.47778 15.3348 5.93667 15.2743 10.3711 15.244C16.1489 15.1987 16.2644 15.1987 16.9722 14.8508C19.0667 13.8376 20.2656 11.1154 19.5722 8.93773C19.4422 8.49916 19.0956 7.84887 18.8211 7.47079L18.33 6.77513L19.7022 6.83562C20.9589 6.88099 21.1178 6.91124 21.45 7.27419ZM14.8056 8.07571C15.0656 8.1967 15.3544 8.42354 15.4411 8.5899C15.7156 9.13433 15.6289 9.93585 15.2533 10.3895C14.9067 10.813 14.8778 10.813 12.8267 10.8886L10.7611 10.9642L9.77889 11.6145L8.81111 12.2497V11.5691V10.8886H7.00555C5.02667 10.8886 4.56444 10.7525 4.24667 10.1173C3.85666 9.3158 4.11666 8.40842 4.83889 8.07571C5.48889 7.77325 14.1122 7.77325 14.8056 8.07571Z" fill="white"/>
<path d="M7.36666 9.05865C7.13555 9.52747 7.42444 10.0114 7.9011 9.95091C8.39222 9.89042 8.65222 9.46698 8.43555 9.10402C8.20444 8.71082 7.56888 8.68058 7.36666 9.05865Z" fill="white"/>
<path d="M9.27334 8.95308C8.88334 9.3614 9.18668 9.98145 9.7789 9.98145C10.1978 9.98145 10.4722 9.48238 10.2556 9.07406C10.0822 8.74136 9.54779 8.66574 9.27334 8.95308Z" fill="white"/>
<path d="M11.1511 8.95308C10.7611 9.3614 11.0645 9.98145 11.6567 9.98145C12.0756 9.98145 12.35 9.48238 12.1333 9.07406C11.96 8.74136 11.4256 8.66574 11.1511 8.95308Z" fill="white"/>
<path d="M104.072 3.6601C104.029 3.76597 104.014 6.82082 104.029 10.4352L104.072 17.0138L105.112 17.0591L106.152 17.1045L106.196 14.0043C106.239 10.6318 106.268 10.5108 107.192 9.80006C107.626 9.45223 108.666 9.39174 109.287 9.64883C110.168 10.042 110.283 10.4655 110.327 13.9589L110.384 17.1045L111.41 17.0591L112.45 17.0138L112.493 14.2916C112.551 10.1933 112.248 8.95317 110.948 7.95505C109.807 7.06279 107.871 7.10816 106.571 8.04579L106.167 8.33313V6.8057C106.167 5.06655 105.993 4.49187 105.314 3.88695C104.823 3.46351 104.188 3.34252 104.072 3.6601Z" fill="white"/>
<path d="M29.0622 4.567C28.9467 4.68799 28.8889 5.38365 28.8889 6.66911C28.8889 8.81658 28.86 8.77121 29.9722 8.77121C30.9833 8.77121 31.0556 8.69559 31.0556 7.7126C31.0556 7.19841 31.1278 6.79009 31.2433 6.69935C31.5467 6.47251 35.1 6.71448 35.62 7.00181C36.92 7.7126 37.5989 9.01318 37.6133 10.7675C37.6133 11.7656 37.5411 12.0529 37.18 12.8091C36.4145 14.3819 35.1722 14.9717 32.5867 14.9717C31.0122 14.9717 31.0556 15.017 31.0556 13.4442V12.4007H29.9722H28.8889V14.5633C28.8889 16.0454 28.9467 16.7864 29.0622 16.9074C29.3367 17.1947 34.19 17.1494 35.3745 16.862C38.1911 16.1664 39.8522 13.8828 39.8667 10.7372C39.8667 7.54624 37.9745 5.11143 35.0422 4.55188C33.8289 4.32504 29.2933 4.32504 29.0622 4.567Z" fill="white"/>
<path d="M125.19 5.39937C125.132 5.44474 125.089 5.92868 125.089 6.45798C125.089 7.35024 125.074 7.41073 124.757 7.41073C124.164 7.41073 123.774 7.95516 123.818 8.66595C123.861 9.30111 123.861 9.30111 124.482 9.34648L125.089 9.39185V11.7208C125.089 13.0063 125.161 14.3976 125.248 14.821C125.436 15.7133 126.071 16.5753 126.779 16.8778C127.443 17.1802 128.816 17.15 129.422 16.8173C130.029 16.4997 130.13 16.0914 129.711 15.5318C129.437 15.184 129.292 15.1235 128.628 15.1235C127.963 15.1235 127.819 15.063 127.559 14.7303C127.284 14.3522 127.256 14.1254 127.256 11.8569V9.37673H128.05C128.714 9.37673 128.917 9.31624 129.206 8.99865C129.552 8.65082 129.653 8.13664 129.48 7.6527C129.408 7.4561 129.162 7.41073 128.324 7.41073H127.256V6.82094C127.256 5.91355 126.692 5.29351 125.898 5.29351C125.551 5.29351 125.233 5.33888 125.19 5.39937Z" fill="white"/>
<path d="M97.2111 7.30483C95.7955 7.72827 94.4811 8.99861 94.1055 10.3294C93.8167 11.3427 93.8311 12.9306 94.1344 13.9136C94.4522 14.942 95.4055 16.0459 96.46 16.5904C97.4711 17.1046 99.0456 17.1802 100.129 16.7416C100.822 16.4543 101.978 15.32 101.978 14.9117C101.978 14.7907 101.689 14.4731 101.328 14.2161L100.678 13.7472L100.071 14.2766C98.8867 15.3503 97.37 15.1688 96.4311 13.8531C96.1711 13.5053 96.1278 13.2179 96.1278 12.0988C96.1278 10.9797 96.1711 10.6924 96.4311 10.3446C97.3989 8.96836 99.2044 8.84738 100.187 10.0875C100.548 10.5563 100.938 10.4655 101.299 9.8455C102.036 8.54492 100.88 7.33507 98.7422 7.18384C98.2511 7.13847 97.5722 7.19897 97.2111 7.30483Z" fill="white"/>
<path d="M50.7433 7.50128C49.92 7.81886 48.9667 8.72624 48.4611 9.69412C47.9122 10.7527 47.7822 12.6734 48.1722 13.8983C48.5333 15.0477 49.3711 16.076 50.3678 16.5751C51.1044 16.9683 51.3644 17.0137 52.5778 17.0137C53.9067 17.0137 54.0078 16.9834 55.1056 16.4088C56.4344 15.7131 56.5789 15.4258 55.8711 14.9721C55.3511 14.6242 54.6 14.6242 53.4878 14.9721C52.2744 15.3501 50.9456 14.836 50.3533 13.7622C50.1222 13.3539 50.05 12.9758 50.05 12.0987C50.05 11.2215 50.1222 10.8435 50.3533 10.4351C51.2344 8.84723 53.43 8.80186 54.2678 10.3595C54.7733 11.2972 54.7444 11.3425 53.5022 11.3425H52.4189L52.1156 12.0382C51.9422 12.4616 51.8844 12.7943 51.9567 12.87C52.0289 12.9456 53.0978 12.9909 54.3256 12.9758L56.55 12.9305L56.5356 11.7206C56.5356 10.7225 56.4633 10.3747 56.16 9.75461C55.6833 8.81698 54.8744 7.97009 54.0222 7.57689C53.2422 7.19882 51.6533 7.16857 50.7433 7.50128Z" fill="white"/>
<path d="M60.6956 7.50144C59.8 7.74341 59.2078 8.04587 58.9333 8.3937C58.7744 8.60542 58.7889 8.74153 59.0489 9.3162C59.3956 10.0572 59.6267 10.1328 60.3922 9.72452C61.0133 9.39182 62.7756 9.28596 63.2667 9.55817C63.8878 9.906 64.1333 10.647 64.1333 12.1896C64.1333 13.475 64.1044 13.6111 63.7 14.2009C63.4544 14.5488 63.05 14.9722 62.79 15.1386C61.7933 15.7889 60.3922 15.063 60.58 14.0043C60.6811 13.4902 61.1289 13.0062 61.5333 13.0062C61.7211 13.0062 61.8078 12.8399 61.8656 12.2954C61.9089 11.8871 61.9089 11.5242 61.8656 11.4637C61.7211 11.1915 60.6667 11.3578 59.93 11.7661C58.9333 12.3106 58.5 13.0516 58.5 14.1858C58.5 15.7133 59.3522 16.7567 60.8833 17.0894C61.9667 17.3314 62.6744 17.1046 63.5122 16.2577C63.8878 15.8796 64.2056 15.5771 64.22 15.5771C64.2489 15.5771 64.2778 15.8947 64.3067 16.2879L64.35 17.0138L65.1156 17.0592C66.3578 17.1348 66.3289 17.2256 66.2711 13.3843C66.2278 10.4202 66.1844 9.98162 65.9244 9.37669C65.1589 7.6073 63.0211 6.83602 60.6956 7.50144Z" fill="white"/>
<path d="M87.0278 7.53098C85.7711 7.98467 85.2078 8.57447 84.9333 9.70869C84.63 10.979 85.2367 12.2796 86.3633 12.7484C86.6667 12.8845 87.4322 13.0811 88.0678 13.2172C89.6567 13.5348 89.9889 13.7012 89.9889 14.2305C89.9889 14.5178 89.8733 14.7447 89.6278 14.911C89.0933 15.274 87.1 15.1379 86.2622 14.6842C85.9156 14.5027 85.54 14.3817 85.4389 14.4271C85.2511 14.5027 84.6444 15.7579 84.6444 16.0604C84.6444 16.3175 86.2333 16.9375 87.2589 17.0887C88.2844 17.24 89.4978 17.1341 90.3067 16.8014C91 16.5292 91.8522 15.5916 92.0256 14.9261C92.5022 13.0509 91.4333 11.7806 88.9778 11.342C87.5044 11.0849 87.1144 10.9034 87.0133 10.4951C86.8833 9.95066 87.0422 9.69357 87.6344 9.42136C88.27 9.14914 89.3967 9.23988 90.3933 9.63308C91.1444 9.93554 91.3611 9.78431 91.3611 8.9223C91.3611 8.51398 91.2456 8.22664 91.0144 7.95442C90.3933 7.25876 88.3567 7.04704 87.0278 7.53098Z" fill="white"/>
<path d="M116.74 7.50144C115.844 7.74341 115.252 8.04587 114.978 8.3937C114.819 8.60542 114.833 8.74153 115.093 9.3162C115.44 10.0572 115.671 10.1328 116.437 9.72452C117.058 9.39182 118.82 9.28596 119.311 9.55817C119.932 9.906 120.178 10.647 120.178 12.1896C120.178 13.475 120.149 13.6111 119.744 14.2009C119.499 14.5488 119.094 14.9722 118.834 15.1386C117.838 15.7889 116.437 15.063 116.624 14.0043C116.726 13.4902 117.173 13.0062 117.578 13.0062C117.737 13.0062 117.91 12.7794 118.069 12.3559C118.444 11.3124 118.43 11.2973 117.361 11.3729C115.584 11.5242 114.544 12.5677 114.544 14.2161C114.544 15.7133 115.411 16.7567 116.957 17.0894C117.982 17.3314 118.676 17.1046 119.542 16.2577C119.918 15.8796 120.25 15.5771 120.264 15.5771C120.293 15.5771 120.322 15.8947 120.351 16.2879L120.394 17.0138L121.16 17.0592C122.402 17.1348 122.373 17.2256 122.316 13.3994C122.272 10.4051 122.243 9.98162 121.969 9.37669C121.189 7.6073 119.051 6.83602 116.74 7.50144Z" fill="white"/>
<path d="M42.0333 12.25V17.1045L43.0878 17.0591L44.1278 17.0138L44.2 14.0648C44.2578 11.5997 44.3155 11.0402 44.5322 10.6167C44.8355 10.042 45.7455 9.54297 46.4822 9.52785C46.93 9.52785 46.9444 9.4976 46.9444 8.92293C46.9444 8.15165 46.41 7.56185 45.7311 7.56185C45.24 7.56185 44.2 8.21214 44.2 8.5146C44.2 8.62047 44.07 8.48436 43.9111 8.21214C43.5789 7.62234 43.2178 7.41062 42.5533 7.41062H42.0333V12.25Z" fill="white"/>
<path d="M71.5722 7.69796C71.2545 7.84919 70.8645 8.1214 70.72 8.30288L70.4456 8.62047L69.9689 8.09116C69.6078 7.66771 69.4056 7.56185 68.9867 7.56185H68.4667V12.3256V17.0894H69.4633H70.46L70.5178 14.095C70.5756 10.7831 70.6767 10.3747 71.5433 9.83031C72.1067 9.46736 73.19 9.43711 73.6378 9.76982C74.3167 10.2689 74.4033 10.6923 74.4322 13.9589L74.4611 17.0138L75.5156 17.0591L76.5556 17.1045V14.4126C76.5556 11.4636 76.6711 10.7982 77.2633 10.1025C77.5956 9.70932 77.7833 9.61859 78.4478 9.57322C79.4011 9.4976 79.8633 9.72445 80.1956 10.4352C80.4122 10.8889 80.4556 11.4182 80.4556 14.0194V17.0894H81.5533H82.6511L82.5933 13.5657C82.55 10.2386 82.5211 10.0269 82.2033 9.33125C81.8133 8.49948 81.0333 7.77357 80.3111 7.56185C79.5022 7.31988 78.13 7.38037 77.4945 7.69796C77.1767 7.84919 76.7145 8.1819 76.4689 8.43899L76.0211 8.9078L75.6022 8.43899C75.3711 8.1819 74.9233 7.84919 74.6056 7.69796C73.84 7.31988 72.3522 7.31988 71.5722 7.69796Z" fill="white"/>
</svg>
